#format: frame checksums
#version: 2
#hash: MD5
#extradata 0,                              42, e89deaac1c1a77d78033d7d9c66b8264
#tb 0: 1/61440
#media_type 0: video
#codec_id 0: ffv1
#dimensions 0: 640x360
#sar 0: 0/1
#stream#, dts,        pts, duration,     size, hash
0,          0,          0,     2048,    18250, e0bf58a24ac0d38dc70c0abc4b630946
0,       2048,       2048,     2048,    17510, b69e1205bd64611b3f359fdff30391d9
0,       4096,       4096,     2048,    18649, 605bcc93e05c6ca6b743275697748d93
0,       6144,       6144,     2048,    18127, f39cf37033dbe0ca0bdc73941377843d
0,       8192,       8192,     2048,    17747, 3716c8da8490ba2e65b2446da793c853
0,      10240,      10240,     2048,    19899, a10f53c9b1569301d57970f6442d9119
0,      12288,      12288,     2048,    18240, 960c56d37a327f30e39984fd6665c8ae
0,      14336,      14336,     2048,    18031, 76b821924ec8e92da267297907ae462f
0,      16384,      16384,     2048,    21486, 141c0d2107a59b03f7a113277e43266f
0,      18432,      18432,     2048,    20120, fc687db43a26af826b353d0bc6f550ff
0,      20480,      20480,     2048,    19514, fa840b5fc5c4403cfced6fcf40c36494
0,      22528,      22528,     2048,    18554, 150671a4b393b7c9640fa1efedd74d49
0,      24576,      24576,     2048,    20422, 677ffe7eb8c3469e197637b37d9076ca
0,      26624,      26624,     2048,    19701, a694c9cda0bd9afb734b5c66a9806041
0,      28672,      28672,     2048,    18811, 66ebd71ec06aa99ab6691c3c87f709f4
0,      30720,      30720,     2048,    20232, ebbc38b82d214c5a38daf755ed3bfec1
0,      32768,      32768,     2048,    19752, 773a2c92165d37d2b24952a21f345340
0,      34816,      34816,     2048,    18646, 66e2f9fd5164e84241bcb7227b9aebbc
0,      36864,      36864,     2048,    20653, ec8494ab24ed2695b8113a8640b3bafa
0,      38912,      38912,     2048,    20665, 798d2c871bad1cac443330c0428ddb06
0,      40960,      40960,     2048,    19046, 02853815edced1b29f1898c6ed7570e1
0,      43008,      43008,     2048,    17451, aabd79fe95aba189dd472f3a7d0aad38
0,      45056,      45056,     2048,    17417, 68385774aa9ba43946a7883af01f9c4c
0,      47104,      47104,     2048,    18844, 955c3696bb09a21970e6181be4bdf3bc
0,      49152,      49152,     2048,    17401, 0bb0f60522ff1220770e501a0a502d4a
0,      51200,      51200,     2048,    18762, a172a3cafa886089a3c41677c9fba514
0,      53248,      53248,     2048,    18726, f0f6a012aa8e4168604e2fc8ed730538
0,      55296,      55296,     2048,    17608, 16b31cf5422ecf5602c9e7f8aa9bba1e
0,      57344,      57344,     2048,    19222, 2fad17429f87083dbd7f56919a2c7f9b
0,      59392,      59392,     2048,    19222, 2fad17429f87083dbd7f56919a2c7f9b
